#tb 0: 1/25
#media_type 0: video
#codec_id 0: rawvideo
#dimensions 0: 352x288
#sar 0: 0/1
0,          0,          0,        1,   304128, 0x73e01324
0,          1,          1,        1,   304128, 0x3e147fca
0,          2,          2,        1,   304128, 0x0a487651
0,          3,          3,        1,   304128, 0x87a30c42
0,          4,          4,        1,   304128, 0xcef4efee
0,          5,          5,        1,   304128, 0x80abb3d5
0,          6,          6,        1,   304128, 0xdc6f809a
0,          7,          7,        1,   304128, 0x2daf1b7c
0,          8,          8,        1,   304128, 0xa8069d56
0,          9,          9,        1,   304128, 0x49909aa4
0,         10,         10,        1,   304128, 0x5f62a4d4
0,         11,         11,        1,   304128, 0xdcd332e0
0,         12,         12,        1,   304128, 0x74003b17
0,         13,         13,        1,   304128, 0x2fe440d0
0,         14,         14,        1,   304128, 0x0eec07ac
0,         15,         15,        1,   304128, 0x76c1a2b4
0,         16,         16,        1,   304128, 0x48dcff41
0,         17,         17,        1,   304128, 0x00e0ce87
0,         18,         18,        1,   304128, 0xf48ce7a2
0,         19,         19,        1,   304128, 0x69c2240d
0,         20,         20,        1,   304128, 0xc583a75a
0,         21,         21,        1,   304128, 0x37613d35
0,         22,         22,        1,   304128, 0x183e4e91
0,         23,         23,        1,   304128, 0x63060f85
0,         24,         24,        1,   304128, 0x35e1b44d
0,         25,         25,        1,   304128, 0x843b924d
0,         26,         26,        1,   304128, 0x4f035963
0,         27,         27,        1,   304128, 0xc467407c
0,         28,         28,        1,   304128, 0x70dd5a4d
0,         29,         29,        1,   304128, 0x0ed8f987
0,         30,         30,        1,   304128, 0x43294242
0,         31,         31,        1,   304128, 0x8c23d6fe
0,         32,         32,        1,   304128, 0xd65bfd44
0,         33,         33,        1,   304128, 0x897b8986
0,         34,         34,        1,   304128, 0x204a1c37
0,         35,         35,        1,   304128, 0x0f30dc18
0,         36,         36,        1,   304128, 0x6c63ac0f
0,         37,         37,        1,   304128, 0xeff39607
0,         38,         38,        1,   304128, 0xe74adff2
0,         39,         39,        1,   304128, 0x77b61436
0,         40,         40,        1,   304128, 0x6646a84c
0,         41,         41,        1,   304128, 0x6534d2c8
0,         42,         42,        1,   304128, 0xe5766bbf
0,         43,         43,        1,   304128, 0xdde1df73
0,         44,         44,        1,   304128, 0xe0c32fa3
0,         45,         45,        1,   304128, 0x9e4c272b
0,         46,         46,        1,   304128, 0x3e6bfc58
0,         47,         47,        1,   304128, 0x8c6f8ca9
0,         48,         48,        1,   304128, 0x6219f153
0,         49,         49,        1,   304128, 0xacc3f4ea
